<?xml version="1.0" encoding="UTF-8" standalone="no"?>
<svg width="60px" height="60px" viewBox="0 0 60 60" version="1.1" xmlns="http://www.w3.org/2000/svg" xmlns:xlink="http://www.w3.org/1999/xlink" xmlns:sketch="http://www.bohemiancoding.com/sketch/ns">
    <!-- Generator: Sketch 3.2.2 (9983) - http://www.bohemiancoding.com/sketch -->
    <title>Key</title>
    <desc>Created with Sketch.</desc>
    <defs></defs>
    <g id="stroked" stroke="none" stroke-width="1" fill="none" fill-rule="evenodd" sketch:type="MSPage">
        <g id="Tech" sketch:type="MSLayerGroup" transform="translate(-718.000000, -729.000000)" stroke-linecap="square" stroke="#ffffff" stroke-width="2">
            <g id="Key" transform="translate(721.000000, 742.000000)" sketch:type="MSShapeGroup">
                <path d="M34,10 C34.0003304,4.4770958 38.4761421,0 44,0 C49.5228475,0 54,4.47455891 54,10.0006116 L54,20.9993884 C54,26.5225737 49.5240618,31 44,31 C38.4771525,31 34,26.5254411 34,20.9993884 L34,15 L0,15 L0,10 L34,10 Z M38,11.0037009 C38,7.68794843 40.6930342,5 44,5 C47.3137085,5 50,7.68099481 50,11.0037009 L50,19.9962991 C50,23.3120516 47.3069658,26 44,26 C40.6862915,26 38,23.3190052 38,19.9962991 L38,11.0037009 Z" id="Rectangle-428"></path>
                <rect id="Rectangle-431" x="4" y="15" width="6" height="10"></rect>
                <rect id="Rectangle-432" x="14" y="15" width="6" height="10"></rect>
            </g>
        </g>
    </g>
</svg>